<?xml version="1.0" encoding="UTF-8"?>
<svg id="Layer_2" data-name="Layer 2" xmlns="http://www.w3.org/2000/svg" viewBox="0 0 613.62 613.62">
  <defs>
    <style>
      .cls-1 {
        fill: #b5dbf4;
      }

      .cls-1, .cls-2, .cls-3, .cls-4, .cls-5, .cls-6 {
        stroke-miterlimit: 10;
      }

      .cls-1, .cls-2, .cls-5, .cls-6 {
        stroke-linecap: round;
      }

      .cls-1, .cls-3, .cls-4, .cls-6, .cls-7 {
        stroke: #122030;
      }

      .cls-1, .cls-6, .cls-7 {
        stroke-width: 20px;
      }

      .cls-2 {
        fill: #335d68;
      }

      .cls-2, .cls-5 {
        stroke: #fff;
        stroke-width: 10px;
      }

      .cls-3 {
        stroke-width: .87px;
      }

      .cls-3, .cls-4 {
        fill: #122030;
      }

      .cls-5, .cls-6, .cls-7 {
        fill: none;
      }

      .cls-7 {
        stroke-linejoin: round;
      }

      .cls-8 {
        fill: #f5fbfe;
      }

      .cls-8, .cls-9 {
        stroke-width: 0px;
      }

      .cls-9 {
        fill: #f5fafe;
      }
    </style>
  </defs>
  <g id="Layer_1-2" data-name="Layer 1">
    <g>
      <circle class="cls-1" cx="306.81" cy="306.81" r="296.81"/>
      <path class="cls-4" d="M174.03,315.31l-27.99,92.73s-56.02-29.64-56.02-86.34c0-20.45,9.01-83.12,61.94-112.38,52.94-29.26,108.25-48.13,155.45-17.39s51.79,36.57,51.79,36.57l83.08-18.43s1.69,53.29,1.97,75.48c.45,35.39-34.45,59.55-50.87,71.19-152.55,108.15-199.62,29.26-199.62,29.26,0,0,15.19,66.4,78.22,37.84-31.92,73.09,38.95,169.92,38.95,169.92,0,0-124.64,34.53-195.09-72.65,63.85-58.79,58.19-205.79,58.19-205.79Z"/>
      <path class="cls-8" d="M443.3,213.06l-83.08,18.43s-4.59-5.84-51.79-36.57c-44.09-28.7-95.25-14.14-144.94,11.75,31.98-8.87,58.23-30.49,99.96-17.83,70.46,21.38,81.83,61.75,81.83,61.75l45.73-7.42s33.64,58.43-7.42,91.83c-147.15,119.7-188.8,53.98-188.8,53.98,0,0-2.28,77.32,64.59,50.07,6.6-2.69-30.13,35.26,51.58,154.69.45-.13,23.48-2.38,23.48-2.38l-41.09-117.06s14.77,4.09,31.23,0,24.66-13.89,24.66-13.89c0,0-25.8-58.92-25.43-59.09,40.7-19.14,58.9-19.14,112.94-75.74,13.9-14.56,6.57-112.53,6.57-112.53Z"/>
      <path class="cls-7" d="M155.56,294.34c19.21,44.22-10.84,106.11-10.84,106.11,0,0-53.58,6.75-73.73-39.91-20.15-46.66,48.55-150.09,139.4-182.45,90.85-32.35,147.49,50.99,147.49,50.99l83.08-18.43s15.99,86.06-5.25,111.94c-30.52,37.18-106.2,77.86-106.2,77.86,0,0-9.38,27.05,2.13,40.04,10.66,12.03,34.52,14.11,34.52,14.11,0,0-2.23,12.99-33.11,24.17-14.24,5.15-34.45-.04-34.45-.04,0,0,35.36,89.37,47.54,115.01"/>
      <path class="cls-1" d="M144.72,400.45c0,71.63-57.75,96.46-57.75,96.46"/>
      <circle class="cls-4" cx="424.46" cy="234.24" r="25.96"/>
      <path class="cls-6" d="M124.73,448.37c-4.68,14.35,71.75,108.37,213.73,77"/>
      <path class="cls-8" d="M285.55,246.77c3.88-5.63,5.87-9.98,5.87-9.98,0,0-11.38-3.4-22.85-2.34-2.67-.19-5.42.14-8.1,1.1-2.44.87-4.59,2.17-6.42,3.78-.21.15-.42.29-.62.45-13.32,10.38-10.24,34.59-10.24,34.59,0,0,5.56-.61,12.95-3.51,5.05,3.35,11.55,4.39,17.7,2.2,10.36-3.69,15.77-15.08,12.08-25.44-.1-.29-.24-.57-.35-.85Z"/>
      <path class="cls-3" d="M283.12,245.11c3.37-4.89,5.09-8.66,5.09-8.66,0,0-9.87-2.95-19.83-2.03-2.32-.17-4.7.12-7.03.95-2.11.75-3.98,1.89-5.57,3.28-.18.13-.37.25-.54.39-11.56,9-8.88,30.01-8.88,30.01,0,0,4.83-.53,11.23-3.04,4.38,2.91,10.02,3.81,15.35,1.91,8.99-3.2,13.68-13.08,10.48-22.07-.09-.25-.21-.49-.31-.74Z"/>
      <circle class="cls-9" cx="271.99" cy="249.46" r="4.84"/>
      <ellipse class="cls-9" cx="433.25" cy="218.15" rx="9.01" ry="4.84" transform="translate(-43.33 127.76) rotate(-15.99)"/>
      <g>
        <polyline class="cls-5" points="432.93 104.27 443.67 108.72 454.41 104.27"/>
        <polyline class="cls-5" points="454.41 173.19 443.67 168.74 432.93 173.19"/>
        <polyline class="cls-5" points="478.13 127.99 473.68 138.73 478.13 149.47"/>
        <polyline class="cls-5" points="409.21 149.47 413.66 138.73 409.21 127.99"/>
        <line class="cls-2" x1="443.67" y1="88.59" x2="443.67" y2="188.87"/>
        <line class="cls-2" x1="479.13" y1="103.27" x2="408.21" y2="174.19"/>
        <line class="cls-2" x1="493.81" y1="138.73" x2="393.52" y2="138.73"/>
        <line class="cls-2" x1="479.13" y1="174.19" x2="408.21" y2="103.27"/>
      </g>
    </g>
  </g>
</svg>